<svg width="14" height="15" viewBox="0 0 14 15" fill="none" xmlns="http://www.w3.org/2000/svg">
  <path
    d="M7 1.375C6.03477 1.375 5.25 2.15977 5.25 3.125H8.75C8.75 2.15977 7.96523 1.375 7 1.375ZM4.375 3.125C4.375 1.67578 5.55078 0.5 7 0.5C8.44922 0.5 9.625 1.67578 9.625 3.125V3.22344C9.625 3.65273 9.27773 4 8.84844 4H5.1543C4.725 4 4.37773 3.65273 4.37773 3.22344V3.125H4.375ZM1.00352 3.25352C1.17305 3.08398 1.45195 3.08398 1.62148 3.25352L3.78984 5.42188C4.26016 5.07734 4.83984 4.875 5.46875 4.875H8.53125C9.15742 4.875 9.73984 5.07734 10.2102 5.42188L12.3785 3.25352C12.548 3.08398 12.827 3.08398 12.9965 3.25352C13.166 3.42305 13.166 3.70195 12.9965 3.87148L10.8281 6.03984C11.1727 6.51016 11.375 7.08984 11.375 7.71875V7.9375H13.5625C13.8031 7.9375 14 8.13438 14 8.375C14 8.61563 13.8031 8.8125 13.5625 8.8125H11.375V9.25C11.375 10.0758 11.1453 10.8469 10.7488 11.5059L12.9965 13.7535C13.166 13.923 13.166 14.202 12.9965 14.3715C12.827 14.541 12.548 14.541 12.3785 14.3715L10.2184 12.2113C9.41992 13.0809 8.27422 13.625 7 13.625C5.72578 13.625 4.58008 13.0809 3.78164 12.2141L1.62148 14.3742C1.45195 14.5437 1.17305 14.5437 1.00352 14.3742C0.833984 14.2047 0.833984 13.9258 1.00352 13.7562L3.25117 11.5086C2.85469 10.8469 2.625 10.0758 2.625 9.25V8.8125H0.4375C0.196875 8.8125 0 8.61563 0 8.375C0 8.13438 0.196875 7.9375 0.4375 7.9375H2.625V7.71875C2.625 7.09258 2.82734 6.51016 3.17188 6.03984L1.00352 3.87148C0.833984 3.70195 0.833984 3.42305 1.00352 3.25352ZM3.5 9.25C3.5 11.0355 4.83711 12.5066 6.5625 12.7227V7.5C6.5625 7.25938 6.75938 7.0625 7 7.0625C7.24062 7.0625 7.4375 7.25938 7.4375 7.5V12.7227C9.16289 12.5066 10.5 11.0355 10.5 9.25V8.375V7.71875C10.5 6.63047 9.61953 5.75 8.53125 5.75H5.46875C4.38047 5.75 3.5 6.63047 3.5 7.71875V8.375V9.25Z"
    fill="#6119ef" />
</svg>