<svg width="14" height="15" viewBox="0 0 14 15" fill="none" xmlns="http://www.w3.org/2000/svg">
  <path
    d="M4.375 1.8125V3.125H9.625V1.8125C9.625 1.57187 9.42813 1.375 9.1875 1.375H4.8125C4.57188 1.375 4.375 1.57187 4.375 1.8125ZM3.5 3.125V1.8125C3.5 1.08789 4.08789 0.5 4.8125 0.5H9.1875C9.91211 0.5 10.5 1.08789 10.5 1.8125V3.125H12.25C13.2152 3.125 14 3.90977 14 4.875V11.875C14 12.8402 13.2152 13.625 12.25 13.625H1.75C0.784766 13.625 0 12.8402 0 11.875V4.875C0 3.90977 0.784766 3.125 1.75 3.125H3.5ZM10.0625 4H3.9375H1.75C1.26602 4 0.875 4.39102 0.875 4.875V11.875C0.875 12.359 1.26602 12.75 1.75 12.75H12.25C12.734 12.75 13.125 12.359 13.125 11.875V4.875C13.125 4.39102 12.734 4 12.25 4H10.0625Z"
    fill="#6119ef" />
</svg>