<svg width="14" height="15" viewBox="0 0 14 15" fill="none" xmlns="http://www.w3.org/2000/svg">
  <path
    d="M0.875 1.8125C0.875 1.57187 0.678125 1.375 0.4375 1.375C0.196875 1.375 0 1.57187 0 1.8125V11.4375C0 12.6461 0.978906 13.625 2.1875 13.625H13.5625C13.8031 13.625 14 13.4281 14 13.1875C14 12.9469 13.8031 12.75 13.5625 12.75H2.1875C1.46289 12.75 0.875 12.1621 0.875 11.4375V1.8125ZM12.9965 4.74648C13.166 4.57695 13.166 4.29805 12.9965 4.12852C12.827 3.95898 12.548 3.95898 12.3785 4.12852L8.75 7.75703L6.43398 5.44102C6.26445 5.27148 5.98555 5.27148 5.81602 5.44102L2.75352 8.50352C2.58398 8.67305 2.58398 8.95195 2.75352 9.12148C2.92305 9.29102 3.20195 9.29102 3.37148 9.12148L6.125 6.36797L8.44102 8.68398C8.61055 8.85352 8.88945 8.85352 9.05898 8.68398L12.9965 4.74648Z"
    fill="#6119EF" />
</svg>